<svg width="16" height="8" viewBox="0 0 16 8" fill="none" xmlns="http://www.w3.org/2000/svg">
<path d="M14.9684 3.4391L12.1445 0.629668C11.8685 0.355171 11.4144 0.314348 11.1243 0.574768C10.815 0.851517 10.8057 1.3259 11.0963 1.61532L12.3762 2.88899C12.5208 3.03285 12.4184 3.27835 12.2141 3.27835H7.5986C7.20808 3.27835 6.85831 3.56917 6.83793 3.95713C6.81614 4.37042 7.14667 4.71305 7.55785 4.71305H12.2141C12.4184 4.71305 12.5208 4.95883 12.3762 5.10241L11.1251 6.34736C10.8492 6.62186 10.8085 7.07372 11.0697 7.36201C11.3481 7.66973 11.8253 7.67902 12.1159 7.39017L14.9684 4.55201C15.2774 4.24486 15.2774 3.74626 14.9684 3.4391Z" fill="#33C1CC"/>
<path d="M4.88636 3.27832H4.05552C3.65736 3.27832 3.33447 3.59955 3.33447 3.99567C3.33447 4.39179 3.65736 4.71302 4.05552 4.71302H4.88636C5.28452 4.71302 5.60712 4.39179 5.60712 3.99567C5.60712 3.59955 5.28452 3.27832 4.88636 3.27832Z" fill="#33C1CC"/>
<path d="M1.59839 3.27832H1.52057C1.12269 3.27832 0.799805 3.59983 0.799805 3.99595C0.799805 4.39207 1.12269 4.7133 1.52057 4.7133H1.5981C1.99655 4.7133 2.31886 4.39207 2.31886 3.99595C2.31886 3.59983 1.99655 3.27832 1.59839 3.27832Z" fill="#33C1CC"/>
</svg>
