<svg width="20" height="10" viewBox="0 0 20 10" fill="none" xmlns="http://www.w3.org/2000/svg">
<path d="M19.6788 4.22094L15.7567 0.318949C15.3735 -0.0622964 14.7427 -0.118994 14.3398 0.2427C13.9102 0.627073 13.8973 1.28594 14.3009 1.68791L16.0786 3.45689C16.2795 3.6567 16.1372 3.99767 15.8534 3.99767H9.44302C8.90064 3.99767 8.41485 4.4016 8.38655 4.94042C8.35628 5.51444 8.81535 5.99031 9.38643 5.99031H15.8534C16.1372 5.99031 16.2795 6.33167 16.0786 6.5311L14.341 8.26019C13.9578 8.64143 13.9012 9.26902 14.264 9.66943C14.6507 10.0968 15.3134 10.1097 15.717 9.70853L19.6788 5.76665C20.108 5.34005 20.108 4.64755 19.6788 4.22094Z" fill="#33C1CC"/>
<path d="M5.67618 3.99756H4.52223C3.96923 3.99756 3.52078 4.44371 3.52078 4.99388C3.52078 5.54405 3.96923 5.9902 4.52223 5.9902H5.67618C6.22918 5.9902 6.67724 5.54405 6.67724 4.99388C6.67724 4.44371 6.22918 3.99756 5.67618 3.99756Z" fill="#33C1CC"/>
<path d="M1.10914 3.99756H1.00106C0.448452 3.99756 0 4.4441 0 4.99427C0 5.54444 0.448452 5.99059 1.00106 5.99059H1.10875C1.66214 5.99059 2.10981 5.54444 2.10981 4.99427C2.10981 4.4441 1.66214 3.99756 1.10914 3.99756Z" fill="#33C1CC"/>
</svg>
