<svg width="40" height="40" viewBox="0 0 40 40" fill="none" xmlns="http://www.w3.org/2000/svg">
<path d="M16.8961 0C7.58003 0 0 7.58003 0 16.8961C0 26.2121 7.58003 33.7921 16.8961 33.7921C26.2121 33.7921 33.7921 26.2121 33.7921 16.8961C33.7921 7.58003 26.2134 0 16.8961 0ZM16.8961 30.8375C9.20937 30.8375 2.95468 24.5841 2.95468 16.8961C2.95468 9.20804 9.20937 2.95601 16.8961 2.95601C24.5828 2.95601 30.8375 9.20937 30.8375 16.8974C30.8375 24.5854 24.5841 30.8375 16.8961 30.8375ZM39.5668 37.4775L28.8281 26.7388C28.2508 26.1614 27.3161 26.1614 26.7388 26.7388C26.1614 27.3161 26.1614 28.2521 26.7388 28.8281L37.4775 39.5668C37.7668 39.8562 38.1442 40.0002 38.5228 40.0002C38.9015 40.0002 39.2788 39.8562 39.5682 39.5668C40.1442 38.9908 40.1442 38.0548 39.5668 37.4775Z" fill="white"/>
</svg>
